<svg xmlns="http://www.w3.org/2000/svg" xmlns:xlink="http://www.w3.org/1999/xlink" version="1.0" x="0px" y="0px" viewBox="0 0 100 100" enable-background="new 0 0 100 100" xml:space="preserve"><path transform="rotate(180 50 50 )" stroke="#000000" stroke-width="2" stroke-linecap="round" stroke-linejoin="round" stroke-miterlimit="10" d="M88.536,46.465  L63.535,21.463c-1.953-1.949-5.119-1.954-7.069,0c-1.952,1.955-1.952,5.121-0.003,7.072c0,0,10.121,10.124,16.465,16.466H15  c-2.76,0-4.999,2.237-4.999,4.999c0.001,2.758,2.237,5,4.999,5h57.923c-6.342,6.343-16.46,16.461-16.46,16.465  c-1.949,1.949-1.953,5.119,0.003,7.072c1.95,1.951,5.116,1.947,7.069,0l25.001-25.001C90.488,51.584,90.486,48.416,88.536,46.465z"/></svg>
