<svg xmlns="http://www.w3.org/2000/svg" xmlns:xlink="http://www.w3.org/1999/xlink" version="1.0" x="0px" y="0px" viewBox="0 0 100 100" enable-background="new 0 0 100 100" xml:space="preserve"><path d="M63.332,60.234v23.099H16.667V36.668H40l6.429-6.667H16.667c-3.669,0-6.667,3.001-6.667,6.667v46.665  C10,86.998,12.998,90,16.667,90h46.665c3.666,0,6.667-3.002,6.667-6.667V53.568L63.332,60.234z"/><path d="M89.028,20.402l-9.427-9.43c-1.295-1.295-3.418-1.295-4.713,0l-34.71,34.709l-3.513,17.653l17.653-3.51l34.709-34.709  C90.324,23.82,90.324,21.697,89.028,20.402z M51.034,53.679l-5.882,1.172l1.169-5.885l30.924-30.921l4.713,4.713L51.034,53.679z"/></svg>
