<svg xmlns="http://www.w3.org/2000/svg" xmlns:xlink="http://www.w3.org/1999/xlink" version="1.0" x="0px" y="0px" viewBox="0 0 100 100" enable-background="new 0 0 100 100" xml:space="preserve"><path d="M49.023,19.427L39.597,10l-3.535,3.535l5.748,5.749v5l-5.752,5.749l3.539,3.538l9.427-9.43  C50.325,22.838,50.325,20.729,49.023,19.427z"/><path d="M70,38.333H30c-1.833,0-3.333,1.5-3.333,3.333v16.667c0,1.832,1.5,3.332,3.333,3.332h40c1.833,0,3.333-1.5,3.333-3.332  V41.667C73.333,39.834,71.833,38.333,70,38.333z M66.667,55H33.333V45h33.334V55z"/><path d="M21.667,32.617c0-4.6,3.73-8.33,8.333-8.33h17.249v-5H30c-7.363,0-13.333,5.967-13.333,13.33V50h5V32.617z"/><path d="M50.977,80.572L60.403,90l3.535-3.535l-5.748-5.748v-5l5.752-5.75l-3.539-3.537l-9.427,9.43  C49.675,77.162,49.675,79.271,50.977,80.572z"/><path d="M78.333,67.383c0,4.6-3.73,8.33-8.333,8.33H52.751v5H70c7.363,0,13.333-5.967,13.333-13.33V50h-5V67.383z"/></svg>
