<svg xmlns="http://www.w3.org/2000/svg" xmlns:xlink="http://www.w3.org/1999/xlink" version="1.0" x="0px" y="0px" viewBox="0 0 100 100" enable-background="new 0 0 100 100" xml:space="preserve"><path d="M76.435,54.834l-18.103-5.172V33.333c0-5.521-4.479-10-10-10c-5.518,0-9.997,4.479-9.997,10v28.792l-2.936-2.932  c-3.9-3.906-10.234-3.9-14.141,0c-3.9,3.906-3.9,10.236,0,14.141L37.924,90h38.252l5.358-26.797  C82.255,59.609,79.96,55.844,76.435,54.834z M70.712,83.334h-30.02L25.971,68.619c-1.295-1.295-1.295-3.41,0-4.713  c1.303-1.303,3.418-1.299,4.721,0l14.31,14.311V33.333c0-1.843,1.487-3.333,3.33-3.333c1.839,0,3.333,1.491,3.333,3.333v21.36  L75.1,61.387L70.712,83.334z"/><path d="M26.779,42.262c-1.14-2.75-1.777-5.762-1.777-8.926C25.001,20.446,35.451,10,48.334,10  c12.888,0,23.334,10.446,23.334,23.336c0,3.164-0.635,6.175-1.777,8.926l-6.162-2.555c0.813-1.963,1.272-4.111,1.272-6.371  c0-9.209-7.461-16.67-16.667-16.67c-9.205,0-16.666,7.461-16.666,16.67c0,2.259,0.459,4.408,1.275,6.371L26.779,42.262z"/></svg>
