<svg xmlns="http://www.w3.org/2000/svg" xmlns:xlink="http://www.w3.org/1999/xlink" version="1.0" x="0px" y="0px" viewBox="0 0 100 100" enable-background="new 0 0 100 100" xml:space="preserve"><rect x="46.667" y="49.999" width="6.666" height="26.669"/><rect x="33.333" y="49.999" width="6.667" height="26.669"/><rect x="60" y="49.999" width="6.667" height="26.669"/><path d="M83.333,23.333H66.667v-6.667c0-3.667-3.002-6.667-6.667-6.667H40c-3.665,0-6.667,3-6.667,6.667v6.667H16.667  c-3.666,0-6.667,2.999-6.667,6.666v13.334h6.667v40.001c0,3.666,3.001,6.667,6.666,6.667h53.334c3.665,0,6.666-3.001,6.666-6.667  V43.333H90V29.999C90,26.332,86.999,23.333,83.333,23.333z M40,16.666h20v6.667H40V16.666z M76.667,83.334H23.333V43.333h53.334  V83.334z M83.333,36.666H16.667v-6.667h66.666V36.666z"/></svg>
