<svg xmlns="http://www.w3.org/2000/svg" xmlns:xlink="http://www.w3.org/1999/xlink" version="1.0" x="0px" y="0px" viewBox="0 0 100 100" enable-background="new 0 0 100 100" xml:space="preserve"><path d="M63.332,20c-4.6,0-8.766,1.865-11.783,4.879v0.004l0,0L24.881,51.549c-3.015,3.015-4.883,7.188-4.883,11.791  c0,9.199,7.461,16.66,16.667,16.66c4.603,0,8.77-1.862,11.783-4.883l0.004,0.006L63.336,60.24c3.906-3.906,3.906-10.237,0-14.144  c-3.904-3.903-10.238-3.903-14.145,0L34.308,60.982l4.714,4.714l14.882-14.883c1.303-1.302,3.416-1.302,4.717,0  c1.303,1.302,1.299,3.411,0,4.714L43.739,70.41l-0.003-0.007c-1.811,1.81-4.311,2.93-7.07,2.93c-5.524,0-10-4.479-10-9.993  c0-2.768,1.119-5.268,2.93-7.077l26.667-26.667c1.811-1.81,4.313-2.93,7.074-2.93c5.52,0,10,4.479,10,10  c-0.004,2.761-1.121,5.261-2.928,7.07l4.715,4.714c3.01-3.015,4.875-7.181,4.879-11.784C80.002,27.461,72.537,20,63.332,20z"/></svg>
