<svg xmlns="http://www.w3.org/2000/svg" xmlns:xlink="http://www.w3.org/1999/xlink" version="1.0" x="0px" y="0px" viewBox="0 0 100 100" enable-background="new 0 0 100 100" xml:space="preserve"><path d="M73.337,43.333H80v-20C80,21.494,78.506,20,76.667,20h-20v6.667H68.62L50,45.287l-18.62-18.62l11.953-0.003V20h-20  C21.494,20,20,21.494,20,23.333v20h6.667V31.38L45.286,50L26.667,68.619l-0.004-11.953H20v20C20,78.506,21.494,80,23.333,80h20  v-6.666H31.38L50,54.713l18.62,18.621l-11.953,0.002V80h20C78.506,80,80,78.506,80,76.666v-20h-6.667v11.953L54.714,50  l18.619-18.623L73.337,43.333z"/></svg>
